<?xml version="1.0" encoding="utf-8"?>
<!-- Generator: Adobe Illustrator 15.0.2, SVG Export Plug-In  -->
<!DOCTYPE svg PUBLIC "-//W3C//DTD SVG 1.1//EN" "http://www.w3.org/Graphics/SVG/1.1/DTD/svg11.dtd" [
	<!ENTITY ns_flows "http://ns.adobe.com/Flows/1.0/">
]>
<svg version="1.1"
	 xmlns="http://www.w3.org/2000/svg" xmlns:xlink="http://www.w3.org/1999/xlink" xmlns:a="http://ns.adobe.com/AdobeSVGViewerExtensions/3.0/"
	 x="0px" y="0px" width="89px" height="95px" viewBox="0 0 89 95" overflow="visible" enable-background="new 0 0 89 95"
	 xml:space="preserve">
<defs>
</defs>
<path fill="#DB2839" d="M44.5,0C19.923,0,0,18.667,0,47.667v0c0,26.326,19.923,47.667,44.5,47.667S89,73.993,89,47.667v0
	C89,17.667,69.077,0,44.5,0z M44.86,85.167c-9.413,0-16.913-9.166-16.913-37.5v0c0-25.833,4.167-37.5,16.913-37.5
	c11.254,0,16.587,13.898,16.587,37.5v0C61.447,74.333,55.048,85.167,44.86,85.167z"/>
<path fill="#C11E28" d="M44.86,85.167c-9.413,0-16.913-9.166-16.913-37.5H0c0,26.326,19.923,47.667,44.5,47.667S89,73.993,89,47.667
	H61.447C61.447,74.333,55.048,85.167,44.86,85.167z"/>
<path fill="#AD1A27" d="M44.86,10.167c11.254,0,16.587,13.898,16.587,37.5c0,26.667-6.399,37.5-16.587,37.5
	c-9.413,0-16.913-9.166-16.913-37.5C27.947,21.833,32.114,10.167,44.86,10.167 M44.86,7.167c-7.517,0-12.898,3.661-15.993,10.88
	c-2.674,6.237-3.919,15.649-3.919,29.62c0,13.732,1.772,24.083,5.269,30.766c4.208,8.046,10.287,9.734,14.644,9.734
	c12.997,0,19.587-13.626,19.587-40.5C64.447,14.193,53.795,7.167,44.86,7.167L44.86,7.167z"/>
</svg>