<?xml version="1.0" encoding="utf-8"?>
<!-- Generator: Adobe Illustrator 15.0.2, SVG Export Plug-In  -->
<!DOCTYPE svg PUBLIC "-//W3C//DTD SVG 1.1//EN" "http://www.w3.org/Graphics/SVG/1.1/DTD/svg11.dtd" [
	<!ENTITY ns_flows "http://ns.adobe.com/Flows/1.0/">
]>
<svg version="1.1"
	 xmlns="http://www.w3.org/2000/svg" xmlns:xlink="http://www.w3.org/1999/xlink" xmlns:a="http://ns.adobe.com/AdobeSVGViewerExtensions/3.0/"
	 x="0px" y="0px" width="107px" height="106px" viewBox="0 0 107 106" overflow="visible" enable-background="new 0 0 107 106"
	 xml:space="preserve">
<defs>
</defs>
<circle fill="#1F2D5A" cx="53.311" cy="52" r="52"/>
<ellipse fill="#386BAE" cx="53.311" cy="52" rx="41.944" ry="52"/>
<ellipse fill="#5496CA" cx="53.311" cy="52" rx="31.753" ry="52"/>
<path opacity="0.1" fill="#1F2D5A" d="M105.311,52c0-6.005-15.156-21.871-52-21.871c-41.944,0-52,13.75-52,21.871
	c0,28.719,23.281,52,52,52S105.311,80.719,105.311,52z"/>
<path fill="#F7D669" d="M88.509,45.012c0,0,1.933-15.964-10.567-26.797c0,0,7.186,1.959,10.676,6.479
	c0,0-6.009-10.979-16.676-17.313c0,0,8.834,2.167,15.5,7.5c0,0,0.834-2.167,0-3.833c0,0,18.692,7.417,17.026,31.752
	c0,0,1.139-1.089,1.473-3.421c0,0,1.968,30.835-13.332,46.002l-8.667-17.667L88.509,45.012z"/>
<path fill="#F4B044" d="M71.273,77.046c0,0,17.5-4.834,13.167-37.667c0,0,7.833,7.002,7,20.168c0,0,8.833-10.698,4.5-29.682
	c0,0,14,24.849-3,52.016c0,0,11.333-15.837,13-42.502c0,0,9.002,33.199-18.499,52.833l-14.668,5.676l-4.833-8.34l-2.5-6.333
	L71.273,77.046z"/>
<path fill="#E99E53" d="M33.135,52c0,0,0.057,2.879,3.807,5.504s5.184,3.125,6.779,3.25s3.846-0.125,5.096-0.75
	s3.5-1.584,5.75-1.917s4.75-0.208,6.25,0.542s3,2,3.5,2.75s0.875,2.75-0.75,2.875s-2.25-0.25-3.25,0s-1.875,1.125-2.375,1.562
	s-3.688,2.812-6.125,3.875s-7,1.5-12.625,1.688s-10.188-5.201-11.125-8.663s2.812-11.712,1.875-12.149S31.754,51.441,33.135,52z"/>
<path fill="#CF5930" d="M31.316,60.254c3.375,3.292,4.915,4.642,9.125,5.125c7.625,0.875,9.348-1.212,11.75-2.663
	c2.268-1.37,4.739-1.802,6.416-1.785c3.251,0.034,6.584,3.198,4.959,3.323s-2.25-0.25-3.25,0s-1.875,1.125-2.375,1.562
	s-3.688,2.812-6.125,3.875s-7,1.5-12.625,1.688s-10.188-5.201-11.125-8.663s2.812-11.712,1.875-12.149S28.039,57.058,31.316,60.254z
	"/>
<path fill="#E35530" d="M37.072,24.744c0,0,2.244,4.01,4.744,4.26s6.25,0,6.25,0s3-0.125,4.125,1.125c0,0,0,2.5-1.375,4.125
	s-3.334,2.875-5.292,4s-4.921,2.692-5.564,3.784s-2.144,0.966-2.144,0.966s-5-5.625-4.75-11.25S34.578,24.359,37.072,24.744z"/>
<path fill="#FAF3C6" d="M37.409,36.443c0,0,2.737-2.611,5.215-2.189c4.65,0.792,7.505-1.774,7.505-1.774s0.938-3.601,2.062-2.351
	c0,0,0,2.5-1.375,4.125s-3.334,2.875-5.292,4s-4.921,2.692-5.564,3.784s-2.144,0.966-2.144,0.966S34.492,38.777,37.409,36.443z"/>
<path fill="#3A312D" d="M48.066,29.004c0,0,3-0.125,4.125,1.125c0,0,0,2.5-1.375,4.125C50.816,34.254,49.886,31.24,48.066,29.004z"
	/>
<path fill="#EC482D" d="M17.86,20.673c0,0-5.751-4.127-6.085-10.293c0,0-6.75,7.173-5.042,18.003l5.425-3.003L17.86,20.673z"/>
<path fill="#DF6132" d="M30.47,20.654c0,0-33.278-10.025-30.278,41.225c0,0,1-3.5,1.25-4.75c0,0,0.5,18.25,16.5,33.25
	s26.834,14.333,26.834,14.333s-1.5-0.5-3-2c0,0,8.667,3.167,15,2.833c0,0-1.166-0.591-2-1.545c0,0,26.832,0.878,32.666-11.788
	c0,0-6.666,3-18.333,1.5c0,0-49.999-1.167-57.333-50.667l16-13.667L30.47,20.654z"/>
<path fill="#C7392C" d="M7.941,39.379c0,0-8.275,7.75-7.75,22.5c0,0,1-3.5,1.25-4.75c0,0,0.5,18.25,16.5,33.25
	s26.834,14.333,26.834,14.333s-1.5-0.5-3-2c0,0,8.667,3.167,15,2.833c0,0-1.166-0.591-2-1.545c0,0,26.832,0.878,32.666-11.788
	c0,0-6.666,3-18.333,1.5c0,0-49.999-1.167-57.333-50.667L7.941,39.379z"/>
<path fill="#DC462F" d="M39.191,71.379c0,0-11.6-8.585-4.425-23.792l-7.325-3.707c0,0-10.496,1.5-9.581,9.167
	S25.941,76.212,39.191,71.379z"/>
<path fill="#E57A3A" d="M44.691,14.379c0,0-10.75-2.25-17.75,11.75c0,0-16-3.25-21,11.25s-1,26,3,34.5c0,0-3-11.5-2-17
	c0,0,2,15.25,9.25,23.25c0,0-2.5-5-2.75-11.75c0,0,8.193,26.75,39.347,31s34.653-19.5,34.653-19.5s-6.5,7.5-14.75,10
	c0,0,10-5,10-17.5c0,0-5,8.25-14.25,11.25c0,0,4.25-2.5,4.5-7.5c0,0-9,9.5-25.5,2.75c0,0-6.25-3-8.25-5.5
	c0,0-14.357,2.96-18.5-15.312c-3.5-15.438,19.5-6.938,19.5-6.938s2.133-5.024-2.75-12C32.191,29.629,40.691,15.629,44.691,14.379z"
	/>
</svg>