<?xml version="1.0" encoding="utf-8"?>
<!-- Generator: Adobe Illustrator 15.0.2, SVG Export Plug-In  -->
<!DOCTYPE svg PUBLIC "-//W3C//DTD SVG 1.1//EN" "http://www.w3.org/Graphics/SVG/1.1/DTD/svg11.dtd" [
	<!ENTITY ns_flows "http://ns.adobe.com/Flows/1.0/">
]>
<svg version="1.1"
	 xmlns="http://www.w3.org/2000/svg" xmlns:xlink="http://www.w3.org/1999/xlink" xmlns:a="http://ns.adobe.com/AdobeSVGViewerExtensions/3.0/"
	 x="0px" y="0px" width="107px" height="115px" viewBox="0 0 107 115" overflow="visible" enable-background="new 0 0 107 115"
	 xml:space="preserve">
<defs>
</defs>
<path fill="#A7A9AC" d="M41.515,10.583c-3.867,0-7.013-2.374-7.013-5.292S37.648,0,41.515,0c3.866,0,7.012,2.374,7.012,5.292
	S45.381,10.583,41.515,10.583z M41.515,1.25c-3.178,0-5.763,1.813-5.763,4.042s2.585,4.042,5.763,4.042
	c3.177,0,5.762-1.813,5.762-4.042S44.692,1.25,41.515,1.25z"/>
<circle fill="#7B7B7B" cx="42.321" cy="9.453" r="3.042"/>
<circle fill="#58595B" stroke="#414042" stroke-miterlimit="10" cx="53.582" cy="61.848" r="53.082"/>
<circle fill="#808285" cx="53.582" cy="61.848" r="47.916"/>
<circle fill="#D1D2D2" stroke="#F1F2F2" stroke-miterlimit="10" cx="53.582" cy="61.848" r="42.75"/>
<path fill="#2E8EC7" d="M88.008,60.026c-1.237,1.549-3.138,2.543-5.273,2.543c-3.098,0-5.703-2.091-6.496-4.937l-10.218,4.976
	c-0.607,6.33-5.952,11.298-12.439,11.298c-6.893,0-12.501-5.608-12.501-12.501c0-2.123,0.536-4.123,1.473-5.875l-0.815-0.869
	c-15.794,1.989-27.24,7.188-27.24,7.188c0,21.585,17.498,39.082,39.083,39.082c21.584,0,39.082-17.497,39.082-39.082
	C92.664,61.848,90.977,61.082,88.008,60.026z"/>
<path fill="#2E8EC7" d="M50.292,58.848l5.763-4.913c-0.818-0.022-1.641-0.038-2.473-0.038c-2.614,0-5.167,0.119-7.638,0.324
	c-1.77,1.88-2.863,4.404-2.863,7.184c0,5.79,4.711,10.501,10.501,10.501c5.79,0,10.5-4.711,10.5-10.501
	c0-1.732-0.429-3.364-1.175-4.806l-6.115,8.667L50.292,58.848z"/>
<polygon fill="#FFFFFF" points="50.292,58.848 77.958,35.265 56.792,65.265 29.292,88.265 "/>
<path fill="#4FA4D5" d="M37.812,50.473l6.646,2.415c1.145-1.225,2.527-2.223,4.08-2.911l0.269-10.923
	c-0.097,0.004-0.193,0.015-0.292,0.015c-3.728,0-6.75-3.023-6.75-6.751c0-1.8,0.709-3.432,1.858-4.642
	c-15.144,3.202-26.709,13.73-28.787,29.118c-0.012,0.091-0.024,0.183-0.035,0.274c-0.05,0.396-0.093,0.797-0.131,1.2
	c-0.03,0.328-0.053,0.657-0.075,0.987c-0.017,0.248-0.037,0.495-0.048,0.745c-0.029,0.612-0.047,1.228-0.047,1.848
	c0,0,11.446-5.198,27.24-7.188L37.812,50.473z"/>
<path fill="#4FA4D5" d="M53.625,26.647c-0.473,0-0.942,0.015-1.411,0.028c1.836,1.207,3.051,3.281,3.051,5.643
	c0,3.186-2.209,5.849-5.177,6.559l4.684,10.088c1.865,0.177,3.606,0.773,5.143,1.681l18.044-15.381l-13.596,19.27
	c3.906,0.45,7.562,1.1,10.864,1.833l0.787,0.005c-0.015-0.184-0.028-0.368-0.028-0.555c0-3.728,3.022-6.75,6.75-6.75
	s6.75,3.022,6.75,6.75c0,1.593-0.555,3.054-1.477,4.208c2.968,1.056,4.656,1.822,4.656,1.822
	C92.664,40.263,75.209,26.647,53.625,26.647z"/>
<path fill="#2E8EC7" d="M64.983,56.306l10.243,0.062c-3.301-0.733-6.958-1.383-10.864-1.833L64.175,54.8
	C64.477,55.282,64.749,55.783,64.983,56.306z"/>
<path fill="#1C74B5" d="M14.499,61.848c0-0.62,0.018-1.235,0.047-1.848C14.517,60.61,14.499,61.225,14.499,61.848z"/>
<path fill="#1C74B5" d="M14.8,57.068c0.011-0.092,0.023-0.183,0.035-0.274C14.823,56.885,14.812,56.977,14.8,57.068z"/>
<path fill="#1C74B5" d="M14.594,59.255c0.021-0.33,0.045-0.659,0.075-0.987C14.639,58.595,14.616,58.925,14.594,59.255z"/>
<path fill="#204690" d="M82.735,58.319c-0.492,0-0.948-0.147-1.335-0.394c-1.172-0.332-2.423-0.663-3.738-0.986l-1.422,0.693
	c0.793,2.846,3.398,4.937,6.496,4.937c2.135,0,4.036-0.994,5.273-2.543c-1.458-0.518-3.228-1.106-5.257-1.708
	C82.746,58.317,82.741,58.319,82.735,58.319z"/>
<path fill="#E6E6E6" d="M82.751,58.317c-0.439-0.13-0.889-0.261-1.352-0.392c0.387,0.246,0.843,0.394,1.335,0.394
	C82.741,58.319,82.746,58.317,82.751,58.317z"/>
<path fill="#FFFFFF" d="M76.027,56.55c0.04,0.371,0.115,0.731,0.212,1.082l1.422-0.693C77.127,56.808,76.583,56.678,76.027,56.55z"
	/>
<path fill="#ED1C24" d="M50.292,58.848l6.5,6.417l-3.21-3.417l7.036-7.672c-1.494-0.115-3.015-0.197-4.563-0.24L50.292,58.848z"/>
<path fill="#BE1E2D" d="M60.618,54.176l-7.036,7.672l3.21,3.417l6.115-8.667c-0.451-0.872-1.021-1.669-1.688-2.377
	C61.02,54.205,60.818,54.191,60.618,54.176z"/>
<path fill="#BE1E2D" d="M64.175,54.8l0.187-0.265c-0.125-0.015-0.249-0.029-0.375-0.043C64.054,54.592,64.111,54.698,64.175,54.8z"
	/>
<path fill="#BE1E2D" d="M61.219,54.221c0.667,0.708,1.237,1.506,1.688,2.377l1.269-1.798c-0.064-0.102-0.121-0.208-0.188-0.308
	C63.077,54.391,62.155,54.299,61.219,54.221z"/>
<path fill="#4FA4D5" d="M56.055,53.936l2.234-1.904c-1.418-0.715-3.014-1.127-4.707-1.127c-3.01,0-5.721,1.28-7.638,3.316
	c2.471-0.205,5.023-0.324,7.638-0.324C54.414,53.897,55.236,53.913,56.055,53.936z"/>
<path fill="#3860A1" d="M50.088,38.877c2.967-0.71,5.177-3.374,5.177-6.559c0-2.361-1.214-4.436-3.051-5.643
	c-2.958,0.082-5.834,0.418-8.591,1.001c-1.148,1.21-1.858,2.841-1.858,4.642c0,3.728,3.022,6.751,6.75,6.751
	c0.099,0,0.194-0.011,0.292-0.015l0.069-2.79L50.088,38.877z M46.015,32.318c0-1.381,1.12-2.5,2.5-2.5s2.5,1.119,2.5,2.5
	s-1.12,2.5-2.5,2.5S46.015,33.699,46.015,32.318z"/>
<path fill="#F2F2F2" d="M14.669,58.269c0.038-0.403,0.081-0.804,0.131-1.2C14.752,57.467,14.706,57.866,14.669,58.269z"/>
<path fill="#2778A7" d="M43.623,27.676c1.23-1.296,2.964-2.108,4.892-2.108c1.367,0,2.636,0.409,3.699,1.107
	c0.469-0.013,0.938-0.028,1.411-0.028c21.584,0,39.039,13.616,39.039,35.201c0-21.585-17.498-39.083-39.082-39.083
	c-19.871,0-36.267,14.833-38.747,34.029C16.914,41.407,28.479,30.878,43.623,27.676z"/>
<path fill="#F2F2F2" d="M14.546,60c0.012-0.25,0.032-0.497,0.048-0.745C14.578,59.503,14.557,59.751,14.546,60z"/>
<path fill="#31548E" d="M48.515,25.568c-1.928,0-3.662,0.812-4.892,2.108c2.757-0.583,5.633-0.919,8.591-1.001
	C51.151,25.977,49.881,25.568,48.515,25.568z"/>
<path fill="#3860A1" d="M82.735,49.068c-3.728,0-6.75,3.022-6.75,6.75c0,0.188,0.013,0.372,0.028,0.555l2.776,0.017l-1.127,0.549
	c1.315,0.324,2.566,0.655,3.738,0.986c-0.698-0.443-1.165-1.219-1.165-2.107c0-1.381,1.12-2.5,2.5-2.5s2.5,1.119,2.5,2.5
	c0,1.375-1.112,2.49-2.484,2.499c2.029,0.602,3.799,1.19,5.257,1.708c0.922-1.154,1.477-2.615,1.477-4.208
	C89.485,52.09,86.463,49.068,82.735,49.068z"/>
<path fill="#F1F2F2" d="M85.235,55.818c0-1.381-1.12-2.5-2.5-2.5s-2.5,1.119-2.5,2.5c0,0.888,0.467,1.664,1.165,2.107
	c0.463,0.131,0.913,0.262,1.352,0.392C84.124,58.309,85.235,57.194,85.235,55.818z"/>
<path fill="#F2F2F2" d="M76.013,56.373l-0.787-0.005c0.271,0.06,0.535,0.121,0.801,0.182C76.021,56.492,76.018,56.432,76.013,56.373
	z"/>
<path fill="#F2F2F2" d="M77.662,56.939l1.127-0.549l-2.776-0.017c0.005,0.059,0.007,0.119,0.014,0.177
	C76.583,56.678,77.127,56.808,77.662,56.939z"/>
<path fill="#FFFFFF" d="M54.771,48.965l-4.684-10.088l-1.213-2.612l-0.069,2.79l-0.269,10.923c-1.553,0.688-2.935,1.686-4.08,2.911
	l-6.646-2.415l3.927,4.188c0.474-0.06,0.955-0.115,1.436-0.168c0.428-0.048,0.857-0.092,1.291-0.135
	c0.49-0.048,0.981-0.095,1.478-0.136c1.917-2.036,4.627-3.316,7.638-3.316c1.693,0,3.289,0.412,4.707,1.127l1.625-1.386
	C58.377,49.738,56.637,49.142,54.771,48.965z"/>
<path fill="#EF3D4B" d="M59.914,50.646l-1.625,1.386l-2.234,1.904c1.548,0.043,3.069,0.125,4.563,0.24l0.271-0.296l1.35-1.472
	l15.72-17.143L59.914,50.646z"/>
<path fill="#D22333" d="M62.238,52.408l-1.35,1.472l-0.271,0.296c0.2,0.015,0.402,0.029,0.601,0.045
	c0.936,0.078,1.858,0.169,2.769,0.271c0.125,0.014,0.25,0.028,0.375,0.043l13.596-19.27L62.238,52.408z"/>
<circle fill="#F1F2F2" cx="48.515" cy="32.318" r="2.5"/>
<circle fill="#204690" cx="24.015" cy="67.187" r="6.75"/>
<circle fill="#204690" cx="59.042" cy="90.437" r="6.75"/>
<path fill="#FFFFFF" d="M66.021,62.608l10.218-4.976c-0.098-0.351-0.172-0.71-0.212-1.082c-0.266-0.061-0.53-0.122-0.801-0.182
	l-10.243-0.062c-0.235-0.523-0.507-1.023-0.808-1.505l-1.269,1.798c0.746,1.442,1.175,3.074,1.175,4.806
	c0,5.79-4.71,10.501-10.5,10.501c-5.79,0-10.501-4.711-10.501-10.501c0-2.78,1.094-5.303,2.863-7.184
	c-0.497,0.041-0.988,0.088-1.478,0.136c-0.434,0.043-0.863,0.087-1.291,0.135c-0.481,0.054-0.962,0.108-1.436,0.168l0.815,0.869
	c-0.819,1.532-1.308,3.259-1.424,5.085l-12.395,6.036l13.557,0.083c1.94,4.085,6.024,6.96,10.797,7.146l5.592,12.045l0.327-13.267
	c1.636-0.797,3.074-1.939,4.219-3.333l6.436,2.338l-4.736-5.05C65.499,65.372,65.885,64.027,66.021,62.608z"/>
<polygon fill="#F1F2F2" points="53.582,61.848 56.792,65.265 29.292,88.265 "/>
<circle fill="#F1F2F2" cx="53.582" cy="61.848" r="2.176"/>
<path fill="#A7A9AC" d="M53.582,64.524c-1.476,0-2.677-1.2-2.677-2.676s1.201-2.676,2.677-2.676c1.476,0,2.676,1.201,2.676,2.676
	S55.058,64.524,53.582,64.524z M53.582,60.172c-0.925,0-1.677,0.752-1.677,1.676c0,0.924,0.752,1.676,1.677,1.676
	c0.924,0,1.676-0.752,1.676-1.676C55.258,60.924,54.506,60.172,53.582,60.172z"/>
<circle fill="#E6E7E8" cx="24.015" cy="67.188" r="2.5"/>
<circle fill="#E6E7E8" cx="59.042" cy="90.438" r="2.5"/>
</svg>