<?xml version="1.0" encoding="utf-8"?>
<!-- Generator: Adobe Illustrator 15.0.2, SVG Export Plug-In  -->
<!DOCTYPE svg PUBLIC "-//W3C//DTD SVG 1.1//EN" "http://www.w3.org/Graphics/SVG/1.1/DTD/svg11.dtd" [
	<!ENTITY ns_flows "http://ns.adobe.com/Flows/1.0/">
]>
<svg version="1.1"
	 xmlns="http://www.w3.org/2000/svg" xmlns:xlink="http://www.w3.org/1999/xlink" xmlns:a="http://ns.adobe.com/AdobeSVGViewerExtensions/3.0/"
	 x="0px" y="0px" width="108px" height="105px" viewBox="0 0 108 105" overflow="visible" enable-background="new 0 0 108 105"
	 xml:space="preserve">
<defs>
</defs>
<path fill="#386BAE" d="M89.19,19.306C75.023,8.973,59.41,9.973,59.41,9.973s-19.72-0.333-31.22,10.5s-12.894,22.334-13.28,29
	s3.28,24,12.78,32.5s20.095,11.5,32.131,11.5s21.036-3.166,27.536-7.5s13.667-12.166,16.5-22.5h-30c0,0-1.666,8.999-12.833,9.666
	s-14-10.002-14.333-15.334h58C104.69,57.805,106.884,32.211,89.19,19.306z M46.856,44.306c0,0,0.113-13.167,12.973-13.167
	s13.693,10.167,14.027,13.167H46.856z"/>
<path fill="#1F2D5A" d="M26.447,64.979c0,0-4.007-20.799,2.618-32.549C37.677,17.155,59.41,9.973,59.41,9.973
	s-19.72-0.333-31.22,10.5s-12.894,22.334-13.28,29s3.28,24,12.78,32.5s20.095,11.5,32.131,11.5
	C59.821,93.473,37.352,91.93,26.447,64.979z"/>
<path fill="#1F2D5A" d="M94.69,52.305c0,1.861-0.122,3.694-0.336,5.5h10.336c0,0,2.194-25.594-15.5-38.499
	c-6.552-4.779-13.41-7.131-18.894-8.282C84.913,19.452,94.69,34.784,94.69,52.305z"/>
<path fill="#1F2D5A" d="M72.708,92.104c5.873-1.325,10.721-3.512,14.649-6.131c6.5-4.334,13.667-12.166,16.5-22.5H93.315
	C90.378,75.305,82.891,85.447,72.708,92.104z"/>
<path fill="#F0E479" d="M93.192,0.323c0,0-12.669-1.934-48.919,23.399S1.315,76.305,1.315,76.305s-10.792,38.334,29.461,26.605
	c0,0-20.42,1.849-15.894-19.73s31.974-52.875,31.974-52.875S66.695,8.467,93.192,0.323z"/>
<path fill="#F8D140" d="M104.065,23.513c0,0,1,0.25,1.75-2.375s4.458-14-1.292-18.583c-5.235-4.172-12.396-2.11-14.896-1.548
	S64.106,8.638,42.606,29.888S14.882,72.43,14.882,72.43S8.44,89.68,13.315,97.68s13.125,5.75,16.125,5.5s17.286-6.133,22.018-10.254
	l-2.67-0.439c0,0-5.098,3.943-13.598,6.443s-16.625-0.039-17.375-5.457S17.69,78.055,32.94,54.055s32.384-37.846,44-45.125
	s21.495-5.55,24.417-4.375c3.42,1.375,4.594,6.75,3.724,12.062c-0.304,1.854-0.765,4.25-0.765,4.25S103.377,23.304,104.065,23.513z"
	/>
</svg>