<?xml version="1.0" encoding="utf-8"?>
<!-- Generator: Adobe Illustrator 15.0.2, SVG Export Plug-In  -->
<!DOCTYPE svg PUBLIC "-//W3C//DTD SVG 1.1//EN" "http://www.w3.org/Graphics/SVG/1.1/DTD/svg11.dtd" [
	<!ENTITY ns_flows "http://ns.adobe.com/Flows/1.0/">
]>
<svg version="1.1"
	 xmlns="http://www.w3.org/2000/svg" xmlns:xlink="http://www.w3.org/1999/xlink" xmlns:a="http://ns.adobe.com/AdobeSVGViewerExtensions/3.0/"
	 x="0px" y="0px" width="110px" height="110px" viewBox="34.583 105.364 110 110"
	 overflow="visible" enable-background="new 34.583 105.364 110 110" xml:space="preserve">
<defs>
</defs>
<circle fill="#88B044" cx="89.52" cy="160.301" r="54.937"/>
<g>
	<defs>
		<circle id="SVGID_3_" cx="89.52" cy="160.301" r="54.937"/>
	</defs>
	<clipPath id="SVGID_4_">
		<use xlink:href="#SVGID_3_"  overflow="visible"/>
	</clipPath>
	<path clip-path="url(#SVGID_4_)" fill="#E3E8D4" d="M63.312,164.231c0,0,7.498,5.302,22.041,3.257c0,0,1.081-0.189,1.725,0.245
		c0.643,0.436,2.897,2.206,4.346,3.825c1.449,1.619,9.838,10.397,12.148,12.669c2.31,2.273,7.386,7.121,10.529,8.863
		c0,0,2.272,1.136,3.257,1.061c0.983-0.076,2.537-0.53,2.916-1.856c0.378-1.325,0.037-4.203-0.492-6.059
		c-0.531-1.856-1.213-3.599-1.213-3.599s2.083-3.637,2.083-10c0-6.362-2.727-13.236-5.112-17.611
		c-2.386-4.374-7.328-11.361-17.214-20.054c0,0-1.064-0.781-1.463-2.301s-1.356-4.762-3.705-8.247
		c-2.349-3.484-6.289-6.891-7.651-8.026c0,0-1.1-0.898-0.986,0.778c0.114,1.677,0.483,4.645,0.47,5.965
		c-0.015,1.321-0.597,4.134-1.619,4.929c-1.023,0.795-1.577,1.178-3.877,1.178c-2.302,0-6.562-1.292-13.151-1.292
		c-6.591,0-13.749,1.903-16.419,2.983c-2.67,1.079-9.373,4.771-13.123,8.408c-3.75,3.636-7.784,9.316-9.658,12.441
		c-1.875,3.125-8.181,15.565-8.863,19.77c-0.682,4.204,0.114,4.688,0.654,4.801c0.54,0.114,1.704-0.341,3.097-2.756
		c1.392-2.414,5.34-7.811,8.039-10.567c2.698-2.754,7.523-7.448,17.185-11.02c3.38-1.25,6.533-1.648,10.112-1.648
		s8.237,0.966,10.283,2.443c0,0-8.806-1.192-14.942,1.192c-6.136,2.386-11.986,5.738-18.633,11.817
		c-6.647,6.078-9.146,9.941-9.146,9.941l0.795,3.523c0,0,8.408-10.397,16.021-15.908c7.611-5.51,15.339-8.635,21.758-8.635
		c6.42,0,8.125,1.191,9.147,1.761c1.022,0.567,2.328,1.534,2.328,2.244s-0.937,1.42-1.987,2.045S68.49,163.578,63.312,164.231z"/>
</g>
<g>
	<defs>
		<circle id="SVGID_2_" cx="89.52" cy="160.301" r="54.937"/>
	</defs>
	<clipPath id="SVGID_5_">
		<use xlink:href="#SVGID_2_"  overflow="visible"/>
	</clipPath>
	<circle clip-path="url(#SVGID_5_)" fill="#9CBC5B" cx="89.52" cy="89.52" r="89.52"/>
</g>
<g>
	<defs>
		<path id="SVGID_1_" d="M89.52,105.364c-30.307,0-54.88,24.543-54.934,54.836c15.165,11.805,34.228,18.838,54.934,18.838
			s39.769-7.034,54.935-18.839C144.399,129.906,119.826,105.364,89.52,105.364z"/>
	</defs>
	<clipPath id="SVGID_6_">
		<use xlink:href="#SVGID_1_"  overflow="visible"/>
	</clipPath>
	<path clip-path="url(#SVGID_6_)" fill="#FFFFFF" d="M63.312,164.231c0,0,7.498,5.302,22.041,3.257c0,0,1.081-0.189,1.725,0.245
		c0.643,0.436,2.897,2.206,4.346,3.825c1.449,1.619,9.838,10.397,12.148,12.669c2.31,2.273,7.386,7.121,10.529,8.863
		c0,0,2.272,1.136,3.257,1.061c0.983-0.076,2.537-0.53,2.916-1.856c0.378-1.325,0.037-4.203-0.492-6.059
		c-0.531-1.856-1.213-3.599-1.213-3.599s2.083-3.637,2.083-10c0-6.362-2.727-13.236-5.112-17.611
		c-2.386-4.374-7.328-11.361-17.214-20.054c0,0-1.064-0.781-1.463-2.301s-1.356-4.762-3.705-8.247
		c-2.349-3.484-6.289-6.891-7.651-8.026c0,0-1.1-0.898-0.986,0.778c0.114,1.677,0.483,4.645,0.47,5.965
		c-0.015,1.321-0.597,4.134-1.619,4.929c-1.023,0.795-1.577,1.178-3.877,1.178c-2.302,0-6.562-1.292-13.151-1.292
		c-6.591,0-13.749,1.903-16.419,2.983c-2.67,1.079-9.373,4.771-13.123,8.408c-3.75,3.636-7.784,9.316-9.658,12.441
		c-1.875,3.125-8.181,15.565-8.863,19.77c-0.682,4.204,0.114,4.688,0.654,4.801c0.54,0.114,1.704-0.341,3.097-2.756
		c1.392-2.414,5.34-7.811,8.039-10.567c2.698-2.754,7.523-7.448,17.185-11.02c3.38-1.25,6.533-1.648,10.112-1.648
		s8.237,0.966,10.283,2.443c0,0-8.806-1.192-14.942,1.192c-6.136,2.386-11.986,5.738-18.633,11.817
		c-6.647,6.078-9.146,9.941-9.146,9.941l0.795,3.523c0,0,8.408-10.397,16.021-15.908c7.611-5.51,15.339-8.635,21.758-8.635
		c6.42,0,8.125,1.191,9.147,1.761c1.022,0.567,2.328,1.534,2.328,2.244s-0.937,1.42-1.987,2.045S68.49,163.578,63.312,164.231z"/>
</g>
</svg>